<?xml version="1.0" encoding="utf-8"?><!-- Uploaded to: SVG Repo, www.svgrepo.com, Generator: SVG Repo Mixer Tools -->
<svg fill="#000000" width="800px" height="800px" viewBox="0 0 32 32" xmlns="http://www.w3.org/2000/svg" xmlns:xlink="http://www.w3.org/1999/xlink" version="1.1" id="calendar-1"  enable-background="new 0 0 32 32" xml:space="preserve">
  <rect x="9" y="18" width="2" height="2"/>
  <rect x="13" y="18" width="2" height="2"/>
  <rect x="17" y="18" width="2" height="2"/>
  <rect x="21" y="22" width="2" height="2"/>
  <rect x="9" y="22" width="2" height="2"/>
  <rect x="13" y="22" width="2" height="2"/>
  <rect x="17" y="22" width="2" height="2"/>
  <rect x="21" y="18" width="2" height="2"/>
  <path d="M23 4V2h-2v2H11V2H9v2H3v26h26V4H23zM27 28H5V14h22V28zM27 12H5V6h4v2h2V6h10v2h2V6h4V12z"/>
</svg>